<svg width="1024" height="1024" viewBox="0 0 1024 1024" fill="none" xmlns="http://www.w3.org/2000/svg">
<path d="M785 229C785 251.091 767.091 269 745 269H268.183C252.066 269 239 255.934 239 239.817V239.817C239 223.7 252.066 210.635 268.183 210.635H416.013C425.301 210.635 432.83 203.105 432.83 193.817V193.817C432.83 184.529 440.359 177 449.647 177H745C767.091 177 785 194.909 785 217V229Z" fill="white" style="fill:white;fill-opacity:1;"/>
<path d="M719.808 844H304.192C282.941 844 265.4 827.383 264.251 806.164L241.284 382.163C240.043 359.256 258.284 340 281.225 340H742.775C765.716 340 783.957 359.256 782.716 382.163L759.749 806.163C758.6 827.383 741.059 844 719.808 844Z" fill="white" style="fill:white;fill-opacity:1;"/>
</svg>
