<?xml version="1.0" encoding="UTF-8"?>
<svg width="82px" height="130px" viewBox="0 0 82 130" version="1.1" xmlns="http://www.w3.org/2000/svg" xmlns:xlink="http://www.w3.org/1999/xlink">
    <title>black_binv2</title>
    <g id="Page-1" stroke="none" stroke-width="1" fill="none" fill-rule="evenodd">
        <g id="bins_black" fill="#4D4D4F" fill-rule="nonzero">
            <rect id="Rectangle" x="5.722" y="12.462" width="70.557" height="3.079"></rect>
            <path d="M41.352,23.643 L5.897,23.643 L12.759,127.192 C12.759,128.399 25.401,129.379 40.999,129.379 C56.596,129.379 69.239,128.4 69.239,127.192 L76.101,23.643 L41.352,23.643 Z" id="Path"></path>
            <path d="M71.59,104.495 L70.057,127.632 L75.158,127.632 C75.93,125.038 76.433,120.825 76.433,116.064 C76.433,111.303 75.93,107.088 75.158,104.496 L71.59,104.496 L71.59,104.495 Z" id="Path"></path>
            <path d="M10.419,104.495 L11.951,127.632 L6.851,127.632 C6.079,125.038 5.575,120.825 5.575,116.064 C5.575,111.303 6.079,107.088 6.851,104.496 L10.419,104.496 L10.419,104.495 Z" id="Path"></path>
            <rect id="Rectangle" x="0" y="16.957" width="82" height="6.686"></rect>
            <path d="M62.771,7.851 L58.518,7.851 L58.518,1.408 C58.519,0.63 57.889,0 57.11,0 L24.926,0 C24.15,0 23.519,0.63 23.519,1.408 L23.519,7.851 L19.268,7.851 L19.268,7.105 L7.789,7.799 L7.789,11.054 L74.211,11.054 L74.211,7.799 L62.771,7.108 L62.771,7.851 Z M25.685,7.851 L25.6709893,3.671 C25.668,2.894 26.296,2.263 27.074,2.263 L54.926,2.263 C55.703,2.263 56.335,2.893 56.338,3.671 L56.352,7.851 L25.685,7.851 Z" id="Shape"></path>
        </g>
    </g>
</svg>